<?xml version="1.0" encoding="utf-8"?>
<!-- Generator: Adobe Illustrator 23.0.3, SVG Export Plug-In . SVG Version: 6.00 Build 0)  -->
<svg version="1.1" id="Layer_1" xmlns="http://www.w3.org/2000/svg" xmlns:xlink="http://www.w3.org/1999/xlink" x="0px" y="0px"
	 viewBox="0 0 390.93 91.37" style="enable-background:new 0 0 390.93 91.37;" xml:space="preserve">
<g>
	<path d="M21.39,25.6v12.77h52.85v14.55H21.39v27.41h-9.7V11.05h62.55V25.6H21.39z"/>
	<path d="M84.13,25.5V11.05h10.29V25.5H84.13z M84.13,80.33V30.84h10.29v49.48H84.13z"/>
	<path d="M125.1,45.69v8.61c0,6.23,2.18,11.68,13.26,11.68h11.98v14.35h-11.28c-8.51,0-23.16,0.1-23.46-19.69V45.69h-10.79V30.84
		h10.79V11.05h9.5v19.79h25.24v14.85H125.1z"/>
	<g>
		<path d="M230.48,13.05v65.28h-5.7V53.21v-2h-2h-52.45h-2v2v25.12h-5.7V13.05h5.7v25.02v2h2h52.45h2v-2V13.05H230.48 M232.48,11.05
			h-9.7v27.02h-52.45V11.05h-9.7v69.28h9.7V53.21h52.45v27.12h9.7V11.05L232.48,11.05z"/>
	</g>
	<g>
		<path d="M298.86,32.84v27.79c0,16.33-10.4,17.69-21.05,17.69l-0.26,0l-0.25,0h-10.39c-8.58,0-21.55,0-21.55-17.69V32.84h5.5V54.3
			c0,8.46,4.14,12.54,13.36,13.03v0.15h2H278h2v-0.15c9.15-0.5,13.26-4.58,13.26-13.03V32.84H298.86 M300.86,30.84h-9.6V54.3
			c0,6.33-2.18,11.08-13.26,11.08v0.1h-11.78v-0.1c-11.18,0-13.36-4.75-13.36-11.08V30.84h-9.5v29.79
			c0,19.69,14.94,19.69,23.55,19.69h10.39c0.17,0,0.33,0,0.51,0c8.59,0,23.05-0.19,23.05-19.69V30.84L300.86,30.84z"/>
	</g>
	<g>
		<path d="M318.65,13.05v17.79v2h2h33.25c9.02,0,23.33,6.25,23.33,23.04c0,13.95-7.99,22.34-21.36,22.45h-25.31V67.38h32.44
			c4.37,0,7.84-1.91,9.76-5.37c1.01-1.8,1.54-4.08,1.54-6.62c0-7.6-6.18-11.7-12-11.7h-41.67h-2v2v32.64h-4.81V13.05H318.65
			 M320.65,11.05h-8.81v69.28h8.81V45.69h41.67c4.65,0,10,3.17,10,9.7c0,2.08-0.4,4.06-1.29,5.64c-1.48,2.67-4.16,4.35-8.02,4.35
			h-34.44v14.94h27.31c12.67-0.1,23.36-7.62,23.36-24.45c0-17.52-14.65-25.04-25.33-25.04h-33.25V11.05L320.65,11.05z"/>
	</g>
</g>
</svg>
